<svg width="512" height="512" viewBox="0 0 512 512" fill="none" xmlns="http://www.w3.org/2000/svg">
  <path d="M256 10C117.937 10 6 120.188 6 256.094H506C506 120.188 394.063 10 256 10Z" fill="url(#paint0_linear)"/>
  <path d="M8.65607 286.855C10.9061 304.513 14.4373 321.832 20.2811 338.135H491.719C497.594 321.832 501.094 304.513 503.344 286.855H8.65607ZM256 502.188C313.406 502.188 366.094 482.961 408.312 450.938H103.687C145.875 482.961 198.594 502.188 256 502.188ZM69.7186 420.146H442.281C456.219 404.827 467.469 387.323 477.156 368.897H34.8123C44.5311 387.323 55.7811 404.827 69.7186 420.146Z" fill="#CF5278"/>
  <defs>
    <linearGradient id="paint0_linear" x1="256" y1="256.094" x2="256" y2="10" gradientUnits="userSpaceOnUse">
      <stop stop-color="#fa5e5a"/>
      <stop offset="1" stop-color="#ff8800"/>
    </linearGradient>
  </defs>
</svg>
