<?xml version="1.0" standalone="no"?>
<!DOCTYPE svg PUBLIC "-//W3C//DTD SVG 20010904//EN" "http://www.w3.org/TR/2001/REC-SVG-20010904/DTD/svg10.dtd">
<svg width="700" height="700" viewBox="0 0 700 700" fill="none" preserveAspectRatio="xMidYMid meet" version="1.0" xmlns="http://www.w3.org/2000/svg">
  <path d="M343.7 13.6C343.6 13.7 337.7 14.1 330.5 14.4C314.4 15.3 308.1 15.9 298.1 17.5C296.8 17.7 293.6 18.2 291.1 18.6C275.4 20.8 238.7 31 223.5 37.4C221.9 38.1 217.4 40 213.5 41.6C197 48.3 174.9 60.5 156.7 72.7C136.7 86.2 124.4 96.4 105 115.9C71.6 149.5 46.6 188.3 29.4 233.4C25.5 243.6 18.8 265.6 16.9 274.5C16.2 277.8 15.5 280.9 15.4 281.5C14 287.5 12.4 296.8 11.4 304.5C11.1 307.2 10.6 310.4 10.4 311.4C9.80001 314.7 9.00001 326.1 8.50001 338.2L8.10001 350H350H692L691.5 337.7C690.9 323.3 689.4 306.9 687.6 297.4C687.4 296.4 686.9 293.5 686.5 291C681.7 261.9 668.8 224.3 653.8 196C646.9 183.1 637 166.7 635.8 166.2C635.4 166 635 165.4 635 164.8C635 164.3 631.3 158.8 626.7 152.7C586 98.1 531.4 57.3 468.5 34.5C457.4 30.5 436.3 24.1 428.5 22.5C422.8 21.2 414 19.6 407.5 18.5C405.9 18.2 403.6 17.8 402.4 17.6C401.3 17.4 397.9 16.9 394.9 16.6C391.9 16.2 388.2 15.8 386.5 15.6C379.6 14.6 344.4 13.1 343.7 13.6Z" fill="black"/>
  <path d="M12.5 396.8C15.5 418.2 19.5 436.4 24.7 453.2L27.4 462L32.5 462.1C35.2 462.1 180.1 462.2 354.4 462.2C650.1 462.3 671.4 462.2 672.6 460.6C675.9 456 685.2 416.2 687.5 396.3L688 392.2H349.9H11.8L12.5 396.8Z" fill="black"/>
  <path d="M48 504.9C48 508.1 77.7 554.3 84.4 561.6C85 562.3 87.1 564.7 89 567.1C90.9 569.4 93.3 572.1 94.2 572.9C95.7 574.3 121.3 574.5 350.4 574.5C581.1 574.4 605.1 574.3 606.2 572.9C606.9 572 610.9 567 615.1 561.9C623.2 551.8 636 533.6 636 532.1C636 531.6 636.4 531 636.8 530.8C637.8 530.4 650.7 508 651.2 505.9C651.5 504.7 608.6 504.5 349.8 504.5C183.8 504.4 48 504.6 48 504.9Z" fill="black"/>
  <path d="M143 617C143.1 618.4 169.6 635.9 182 642.7C189.7 647 211.7 658 212.5 658C213.1 658 216.1 659.2 222.5 662.1C235.4 667.9 268.8 677.6 286 680.5C287.9 680.8 290.2 681.3 291 681.5C291.8 681.7 294.8 682.2 297.5 682.5C300.3 682.9 303.4 683.4 304.5 683.5C307.2 683.9 314.8 684.7 324 685.6C338 686.9 377.5 686.3 388 684.5C391.2 684 396.9 683.2 405 682C445.4 676.2 492 658.9 529.9 635.8C540.2 629.4 556.9 617.9 557 617C557 616.7 463.9 616.5 350 616.5C236.2 616.5 143 616.7 143 617Z" fill="black"/>
</svg>
